# Blender v2.71 (sub 0) OBJ File: 'rotStim.blend'
# www.blender.org
mtllib rotstim.mtl
o FlippedStim
v -4.282284 4.275150 -9.047576
v -4.282284 4.275150 -7.047576
v -2.282284 4.275150 -7.047576
v -2.282284 4.275150 -9.047576
v -4.282284 6.275150 -9.047575
v -4.282283 6.275150 -7.047575
v -2.282283 6.275150 -7.047576
v -2.282284 6.275150 -9.047576
v -4.282284 2.275150 -9.047576
v -4.282284 2.275150 -7.047576
v -2.282284 2.275150 -7.047576
v -2.282284 2.275150 -9.047576
v -4.282284 4.275150 -9.047575
v -4.282283 4.275150 -7.047575
v -2.282283 4.275150 -7.047576
v -2.282284 4.275150 -9.047576
v -4.282284 0.275150 -9.047576
v -4.282284 0.275150 -7.047576
v -2.282284 0.275150 -7.047576
v -2.282284 0.275150 -9.047576
v -4.282284 2.275150 -9.047575
v -4.282283 2.275150 -7.047575
v -2.282283 2.275150 -7.047576
v -2.282284 2.275150 -9.047576
v -4.282284 0.275150 -7.047576
v -4.282284 0.275150 -5.047576
v -2.282284 0.275150 -5.047576
v -2.282284 0.275150 -7.047576
v -4.282284 2.275150 -7.047575
v -4.282283 2.275150 -5.047575
v -2.282283 2.275150 -5.047576
v -2.282284 2.275150 -7.047576
v -4.282284 0.275150 -5.047576
v -4.282284 0.275150 -3.047576
v -2.282284 0.275150 -3.047576
v -2.282284 0.275150 -5.047576
v -4.282284 2.275150 -5.047575
v -4.282283 2.275150 -3.047575
v -2.282283 2.275150 -3.047576
v -2.282284 2.275150 -5.047576
v -2.282284 0.275150 -5.047576
v -2.282284 0.275150 -3.047576
v -0.282284 0.275150 -3.047576
v -0.282284 0.275150 -5.047576
v -2.282284 2.275150 -5.047575
v -2.282283 2.275150 -3.047575
v -0.282283 2.275150 -3.047576
v -0.282284 2.275150 -5.047576
v -0.282284 0.275150 -5.047576
v -0.282284 0.275150 -3.047576
v 1.717716 0.275150 -3.047576
v 1.717716 0.275150 -5.047576
v -0.282284 2.275150 -5.047575
v -0.282283 2.275150 -3.047575
v 1.717717 2.275150 -3.047576
v 1.717716 2.275150 -5.047576
vt 0.857143 0.285714
vt 0.857143 0.428571
vt 1.000000 0.428571
vt 0.714286 0.428571
vt 0.714286 0.571429
vt 0.857143 0.571429
vt 0.571429 0.714286
vt 0.571429 0.571429
vt 0.428571 0.571429
vt 0.000000 0.428572
vt 0.142857 0.428571
vt 0.142857 0.285714
vt 0.714286 0.714286
vt 0.571429 0.428571
vt 0.714286 0.285714
vt 0.000000 0.857143
vt 0.000000 1.000000
vt 0.142857 1.000000
vt 0.285714 0.714286
vt 0.285714 0.857143
vt 0.428571 0.857143
vt 0.571429 0.142857
vt 0.428571 0.142857
vt 0.428571 0.285714
vt 0.285714 0.285714
vt 0.285714 0.142857
vt 0.142857 0.857143
vt 0.857143 0.142857
vt 0.857143 0.000000
vt 1.000000 0.142857
vt 0.000000 0.571429
vt 0.000000 0.285714
vt 0.142857 0.142857
vt 0.428571 0.714286
vt 0.571429 0.857143
vt 0.285714 0.571429
vt 0.142857 0.571429
vt 0.714286 0.857143
vt 0.857143 0.857143
vt 0.857143 0.714286
vt 0.571429 0.000000
vt 0.428572 0.000000
vt 0.000000 0.142857
vt 0.142857 0.000000
vt 0.285714 1.000000
vt 0.428571 1.000000
vt 0.428572 0.428572
vt 0.714286 0.000000
vt 0.714286 0.142857
vt 0.285714 0.428571
vt 0.571429 0.285714
vt 0.000000 0.714286
vt 0.142857 0.714286
vt 1.000000 0.285714
vt 0.285714 0.000000
vt 1.000000 0.000000
vt 0.000000 0.000000
vn 0.000000 -1.000000 -0.000000
vn 0.000000 1.000000 0.000000
vn -1.000000 0.000000 0.000000
vn 0.000000 0.000000 1.000000
vn 1.000000 -0.000000 -0.000000
vn 0.000000 0.000000 -1.000000
usemtl Material
s off
f 1/1/1 4/2/1 3/3/1
f 6/4/2 7/5/2 8/6/2
f 1/7/3 2/8/3 6/9/3
f 2/10/4 3/11/4 7/12/4
f 4/6/5 8/5/5 7/13/5
f 8/14/6 4/4/6 1/15/6
f 9/16/1 12/17/1 11/18/1
f 14/19/2 15/20/2 16/21/2
f 9/22/3 10/23/3 14/24/3
f 10/12/4 11/25/4 15/26/4
f 12/20/5 16/27/5 15/18/5
f 16/15/6 12/1/6 9/28/6
f 17/29/1 20/28/1 19/30/1
f 22/15/2 23/4/2 24/2/2
f 17/11/3 18/10/3 22/31/3
f 18/32/4 19/12/4 23/33/4
f 20/34/5 24/21/5 23/35/5
f 24/19/6 20/36/6 17/37/6
f 28/38/1 27/39/1 26/40/1
f 29/13/2 30/7/2 31/35/2
f 25/22/3 26/41/3 30/42/3
f 26/43/4 27/33/4 31/44/4
f 28/20/5 32/45/5 31/46/5
f 32/8/6 28/14/6 25/47/6
f 36/24/1 35/47/1 34/14/1
f 37/48/2 38/49/2 39/28/2
f 33/12/3 34/11/3 38/50/3
f 34/8/4 35/7/4 39/13/4
f 36/9/5 40/36/5 39/19/5
f 40/51/6 36/15/6 33/49/6
f 44/31/1 43/52/1 42/53/1
f 45/50/2 46/11/2 47/37/2
f 41/8/3 42/5/3 46/4/3
f 42/47/4 43/50/4 47/36/4
f 44/54/5 48/30/5 47/28/5
f 48/16/6 44/27/6 41/53/6
f 52/41/1 51/22/1 50/49/1
f 53/27/2 54/20/2 55/19/2
f 49/23/3 50/42/3 54/55/3
f 50/26/4 51/55/4 55/44/4
f 52/23/5 56/26/5 55/25/5
f 56/50/6 52/47/6 49/24/6
f 2/54/1 1/1/1 3/3/1
f 5/2/2 6/4/2 8/6/2
f 5/34/3 1/7/3 6/9/3
f 6/32/4 2/10/4 7/12/4
f 3/40/5 4/6/5 7/13/5
f 5/51/6 8/14/6 1/15/6
f 10/27/1 9/16/1 11/18/1
f 13/34/2 14/19/2 16/21/2
f 13/51/3 9/22/3 14/24/3
f 14/33/4 10/12/4 15/26/4
f 11/45/5 12/20/5 15/18/5
f 13/49/6 16/15/6 9/28/6
f 18/56/1 17/29/1 19/30/1
f 21/1/2 22/15/2 24/2/2
f 21/37/3 17/11/3 22/31/3
f 22/43/4 18/32/4 23/33/4
f 19/7/5 20/34/5 23/35/5
f 21/53/6 24/19/6 17/37/6
f 25/13/1 28/38/1 26/40/1
f 32/38/2 29/13/2 31/35/2
f 29/23/3 25/22/3 30/42/3
f 30/57/4 26/43/4 31/44/4
f 27/21/5 28/20/5 31/46/5
f 29/9/6 32/8/6 25/47/6
f 33/51/1 36/24/1 34/14/1
f 40/29/2 37/48/2 39/28/2
f 37/25/3 33/12/3 38/50/3
f 38/5/4 34/8/4 39/13/4
f 35/34/5 36/9/5 39/19/5
f 37/22/6 40/51/6 33/49/6
f 41/37/1 44/31/1 42/53/1
f 48/36/2 45/50/2 47/37/2
f 45/14/3 41/8/3 46/4/3
f 46/9/4 42/47/4 47/36/4
f 43/1/5 44/54/5 47/28/5
f 45/52/6 48/16/6 41/53/6
f 49/48/1 52/41/1 50/49/1
f 56/53/2 53/27/2 55/19/2
f 53/26/3 49/23/3 54/55/3
f 54/33/4 50/26/4 55/44/4
f 51/24/5 52/23/5 55/25/5
f 53/25/6 56/50/6 49/24/6
o OrigStim
v 5.000000 3.000000 -5.000000
v 5.000000 3.000000 -3.000000
v 3.000000 3.000000 -3.000000
v 3.000000 3.000000 -5.000000
v 5.000000 5.000000 -5.000000
v 5.000000 5.000000 -3.000000
v 3.000000 5.000000 -3.000000
v 3.000000 5.000000 -5.000000
v 5.000000 1.000000 -5.000000
v 5.000000 1.000000 -3.000000
v 3.000000 1.000000 -3.000000
v 3.000000 1.000000 -5.000000
v 5.000000 3.000000 -5.000000
v 5.000000 3.000000 -3.000000
v 3.000000 3.000000 -3.000000
v 3.000000 3.000000 -5.000000
v 5.000000 -1.000000 -5.000000
v 5.000000 -1.000000 -3.000000
v 3.000000 -1.000000 -3.000000
v 3.000000 -1.000000 -5.000000
v 5.000000 1.000000 -5.000000
v 5.000000 1.000000 -3.000000
v 3.000000 1.000000 -3.000000
v 3.000000 1.000000 -5.000000
v 5.000000 -1.000000 -3.000000
v 5.000000 -1.000000 -1.000000
v 3.000000 -1.000000 -1.000000
v 3.000000 -1.000000 -3.000000
v 5.000000 1.000000 -3.000000
v 5.000000 1.000000 -1.000000
v 3.000000 1.000000 -1.000000
v 3.000000 1.000000 -3.000000
v 5.000000 -1.000000 -1.000000
v 5.000000 -1.000000 1.000000
v 3.000000 -1.000000 1.000000
v 3.000000 -1.000000 -1.000000
v 5.000000 1.000000 -1.000000
v 5.000000 1.000000 1.000000
v 3.000000 1.000000 1.000000
v 3.000000 1.000000 -1.000000
v 3.000000 -1.000000 -1.000000
v 3.000000 -1.000000 1.000000
v 1.000000 -1.000000 1.000000
v 1.000000 -1.000000 -1.000000
v 3.000000 1.000000 -1.000000
v 2.999999 1.000000 1.000000
v 1.000000 1.000000 1.000000
v 1.000000 1.000000 -1.000000
v 1.000000 -1.000000 -1.000000
v 1.000000 -1.000000 1.000000
v -1.000000 -1.000000 1.000000
v -1.000000 -1.000000 -1.000000
v 1.000000 1.000000 -1.000000
v 0.999999 1.000000 1.000000
v -1.000000 1.000000 1.000000
v -1.000000 1.000000 -1.000000
vt 1.000000 0.285714
vt 1.000000 0.428571
vt 0.857143 0.428571
vt 0.857143 0.571429
vt 0.714286 0.571429
vt 0.714286 0.428571
vt 0.571429 0.714286
vt 0.428571 0.714286
vt 0.428571 0.571429
vt 0.000000 0.428572
vt 0.000000 0.285714
vt 0.142857 0.285714
vt 0.714286 0.714286
vt 0.714286 0.285714
vt 0.571429 0.428571
vt 0.142857 0.857143
vt 0.142857 1.000000
vt 0.000000 1.000000
vt 0.428571 0.857143
vt 0.285714 0.857143
vt 0.285714 0.714286
vt 0.571429 0.142857
vt 0.571429 0.285714
vt 0.428571 0.285714
vt 0.142857 0.142857
vt 0.285714 0.142857
vt 0.857143 0.142857
vt 0.857143 0.285714
vt 1.000000 0.000000
vt 1.000000 0.142857
vt 0.142857 0.428572
vt 0.142857 0.571429
vt 0.000000 0.571429
vt 0.000000 0.142857
vt 0.571429 0.857143
vt 0.285714 0.571429
vt 0.857143 0.714286
vt 0.857143 0.857143
vt 0.714286 0.857143
vt 0.428572 0.142857
vt 0.428572 0.000000
vt 0.000000 0.000000
vt 0.142857 0.000000
vt 0.428571 1.000000
vt 0.285714 1.000000
vt 0.428572 0.428572
vt 0.571429 0.571429
vt 0.857143 0.000000
vt 0.714286 0.142857
vt 0.285714 0.285714
vt 0.285714 0.428571
vt 0.142857 0.714286
vt 0.000000 0.714286
vt 0.000000 0.857143
vt 0.714286 0.000000
vt 0.285714 0.000000
vt 0.571429 0.000000
vn 0.000000 -1.000000 0.000000
vn 0.000000 1.000000 0.000000
vn 1.000000 0.000000 0.000000
vn -0.000000 -0.000000 1.000000
vn -1.000000 -0.000000 -0.000000
vn 0.000000 0.000000 -1.000000
usemtl Material
s off
f 58/58/7 59/59/7 60/60/7
f 64/61/8 63/62/8 62/63/8
f 57/64/9 61/65/9 62/66/9
f 58/67/10 62/68/10 63/69/10
f 63/70/11 64/62/11 60/61/11
f 57/71/12 60/63/12 64/72/12
f 66/73/7 67/74/7 68/75/7
f 72/76/8 71/77/8 70/78/8
f 65/79/9 69/80/9 70/81/9
f 66/69/10 70/82/10 71/83/10
f 71/74/11 72/73/11 68/77/11
f 65/84/12 68/85/12 72/71/12
f 74/86/7 75/87/7 76/84/7
f 80/60/8 79/63/8 78/71/8
f 73/88/9 77/89/9 78/90/9
f 74/68/10 78/91/10 79/82/10
f 79/92/11 80/76/11 76/65/11
f 73/89/12 76/93/12 80/78/12
f 82/94/7 83/95/7 84/96/7
f 88/96/8 87/92/8 86/64/8
f 81/79/9 85/97/9 86/98/9
f 82/91/10 86/99/10 87/100/10
f 87/101/11 88/102/11 84/77/11
f 81/103/12 84/72/12 88/104/12
f 89/80/7 90/72/7 91/103/7
f 96/105/8 95/84/8 94/106/8
f 89/69/9 93/107/9 94/108/9
f 90/104/10 94/62/10 95/70/10
f 95/78/11 96/93/11 92/66/11
f 89/106/12 92/71/12 96/80/12
f 97/89/7 98/109/7 99/110/7
f 104/93/8 103/89/8 102/88/8
f 97/104/9 101/72/9 102/63/9
f 98/103/10 102/66/10 103/93/10
f 103/84/11 104/87/11 100/58/11
f 97/109/12 100/73/12 104/111/12
f 105/112/7 106/106/7 107/79/7
f 112/109/8 111/78/8 110/77/8
f 105/97/9 109/83/9 110/113/9
f 106/83/10 110/82/10 111/100/10
f 111/107/11 112/83/11 108/97/11
f 105/81/12 108/103/12 112/108/12
f 57/85/7 58/58/7 60/60/7
f 61/60/8 64/61/8 62/63/8
f 58/104/9 57/64/9 62/66/9
f 59/88/10 58/67/10 63/69/10
f 59/94/11 63/70/11 60/61/11
f 61/80/12 57/71/12 64/72/12
f 65/111/7 66/73/7 68/75/7
f 69/65/8 72/76/8 70/78/8
f 66/97/9 65/79/9 70/81/9
f 67/107/10 66/69/10 71/83/10
f 67/102/11 71/74/11 68/77/11
f 69/106/12 65/84/12 72/71/12
f 73/105/7 74/86/7 76/84/7
f 77/85/8 80/60/8 78/71/8
f 74/67/9 73/88/9 78/90/9
f 75/69/10 74/68/10 79/82/10
f 75/64/11 79/92/11 76/65/11
f 77/109/12 73/89/12 80/78/12
f 81/70/7 82/94/7 84/96/7
f 85/70/8 88/96/8 86/64/8
f 82/114/9 81/79/9 86/98/9
f 83/82/10 82/91/10 87/100/10
f 83/76/11 87/101/11 84/77/11
f 85/66/12 81/103/12 88/104/12
f 92/81/7 89/80/7 91/103/7
f 93/112/8 96/105/8 94/106/8
f 90/88/9 89/69/9 94/108/9
f 91/64/10 90/104/10 95/70/10
f 91/65/11 95/78/11 92/66/11
f 93/79/12 89/106/12 96/80/12
f 100/90/7 97/89/7 99/110/7
f 101/108/8 104/93/8 102/88/8
f 98/62/9 97/104/9 102/63/9
f 99/108/10 98/103/10 103/93/10
f 99/85/11 103/84/11 100/58/11
f 101/110/12 97/109/12 104/111/12
f 108/114/7 105/112/7 107/79/7
f 109/73/8 112/109/8 110/77/8
f 106/98/9 105/97/9 110/113/9
f 107/113/10 106/83/10 111/100/10
f 107/81/11 111/107/11 108/97/11
f 109/107/12 105/81/12 112/108/12
